<svg width="34" height="20" viewBox="0 0 34 20" fill="none" xmlns="http://www.w3.org/2000/svg">
<g clip-path="url(#clip0_2823_1360)">
<path d="M32.7072 15.7668V15.3887H32.6036L32.4837 15.6482L32.3644 15.3887H32.2605V15.7668H32.3341V15.4819L32.4462 15.7277H32.5225L32.6346 15.4813V15.7668H32.7075H32.7072ZM32.0497 15.7668V15.4534H32.1823V15.3896H31.8434V15.4534H31.976V15.7668H32.049H32.0497Z" fill="#F79410"/>
<path d="M20.9324 17.3852H11.9677V2.07812H20.9326L20.9324 17.3852Z" fill="#FF5F00"/>
<path d="M12.536 9.73498C12.536 6.62994 14.0662 3.86395 16.449 2.08143C14.6453 0.730164 12.4144 -0.00321397 10.1175 1.05882e-05C4.45931 1.05882e-05 -0.127319 4.35844 -0.127319 9.73498C-0.127319 15.1115 4.45931 19.47 10.1175 19.47C12.4145 19.4732 14.6454 18.7398 16.4491 17.3885C14.0665 15.6063 12.536 12.8402 12.536 9.73498Z" fill="#EB001B"/>
<path d="M33.0265 9.73498C33.0265 15.1115 28.4399 19.47 22.7817 19.47C20.4845 19.4732 18.2533 18.7398 16.4492 17.3885C18.8327 15.606 20.3629 12.8402 20.3629 9.73498C20.3629 6.62978 18.8327 3.86395 16.4492 2.08143C18.2532 0.730205 20.4843 -0.00315745 22.7815 1.02188e-05C28.4397 1.02188e-05 33.0263 4.35844 33.0263 9.73498" fill="#F79E1B"/>
<path d="M31.4732 11.9299V11.9929H31.535C31.5466 11.9931 31.5581 11.9903 31.5682 11.9849C31.5722 11.9822 31.5755 11.9786 31.5776 11.9743C31.5798 11.9701 31.5808 11.9655 31.5806 11.9608C31.5808 11.9562 31.5798 11.9516 31.5776 11.9475C31.5755 11.9434 31.5722 11.9399 31.5682 11.9373C31.5582 11.9316 31.5467 11.9288 31.535 11.9293H31.4732V11.9299ZM31.5357 11.8854C31.5622 11.8838 31.5885 11.891 31.61 11.9058C31.6186 11.9125 31.6254 11.9211 31.63 11.9308C31.6345 11.9404 31.6365 11.951 31.636 11.9616C31.6364 11.9707 31.6347 11.9798 31.6311 11.9882C31.6275 11.9967 31.6221 12.0043 31.6151 12.0106C31.5985 12.0243 31.5777 12.0325 31.5558 12.034L31.6386 12.1238H31.5748L31.4986 12.0347H31.4739V12.1238H31.4205V11.8855H31.5365L31.5357 11.8854ZM31.5191 12.206C31.5471 12.2062 31.5749 12.2009 31.6005 12.1902C31.6253 12.1801 31.6478 12.1656 31.6668 12.1476C31.6859 12.1295 31.7012 12.1081 31.7117 12.0846C31.7335 12.0347 31.7335 11.9786 31.7117 11.9287C31.701 11.9052 31.6858 11.8838 31.6668 11.8657C31.6477 11.8476 31.6252 11.8331 31.6005 11.823C31.5747 11.8129 31.547 11.8079 31.5191 11.8082C31.4908 11.8079 31.4626 11.813 31.4363 11.823C31.411 11.8329 31.3879 11.8474 31.3685 11.8657C31.3391 11.8942 31.3193 11.9304 31.3114 11.9696C31.3036 12.0088 31.308 12.0493 31.3242 12.0861C31.3343 12.1098 31.3494 12.1312 31.3685 12.1491C31.388 12.1674 31.411 12.1819 31.4363 12.1918C31.4624 12.2024 31.4907 12.2078 31.5191 12.2076M31.5191 11.7509C31.592 11.7508 31.6619 11.778 31.7139 11.8265C31.7389 11.8498 31.7589 11.8775 31.7726 11.9082C31.7867 11.9397 31.794 11.9736 31.794 12.0078C31.794 12.042 31.7867 12.0759 31.7726 12.1074C31.7586 12.1379 31.7387 12.1656 31.7139 12.1891C31.6885 12.2123 31.6589 12.231 31.6265 12.2443C31.5926 12.258 31.556 12.2649 31.5191 12.2647C31.4818 12.265 31.4448 12.258 31.4104 12.2443C31.3777 12.2313 31.3478 12.2126 31.3224 12.1891C31.2976 12.1648 31.278 12.1361 31.2645 12.1047C31.2504 12.0732 31.2431 12.0394 31.2431 12.0051C31.2431 11.9709 31.2504 11.937 31.2645 11.9055C31.2782 11.8749 31.2982 11.8471 31.3232 11.8238C31.3483 11.7999 31.3783 11.7812 31.4112 11.7687C31.4456 11.7549 31.4826 11.7479 31.52 11.7482M6.13953 10.8307C6.13953 10.3764 6.4528 10.0032 6.9648 10.0032C7.45409 10.0032 7.78427 10.3603 7.78427 10.8307C7.78427 11.3011 7.45409 11.6583 6.9648 11.6583C6.4528 11.6583 6.13953 11.285 6.13953 10.8307ZM8.34201 10.8307V9.5378H7.75045V9.85276C7.56282 9.62 7.27823 9.47402 6.89121 9.47402C6.12876 9.47402 5.5304 10.0422 5.5304 10.8313C5.5304 11.6205 6.12843 12.1887 6.89121 12.1887C7.27807 12.1887 7.56282 12.0425 7.75045 11.8099V12.1238H8.34135V10.8307H8.34201ZM28.3301 10.8307C28.3301 10.3764 28.6434 10.0032 29.1555 10.0032C29.6453 10.0032 29.975 10.3603 29.975 10.8307C29.975 11.3011 29.6453 11.6583 29.1555 11.6583C28.6435 11.6583 28.3301 11.285 28.3301 10.8307ZM30.5333 10.8307V8.5H29.9412V9.85276C29.7536 9.62 29.469 9.47402 29.0819 9.47402C28.3195 9.47402 27.7211 10.0422 27.7211 10.8313C27.7211 11.6205 28.3192 12.1887 29.0819 12.1887C29.469 12.1887 29.7536 12.0425 29.9412 11.8099V12.1238H30.5333V10.8307ZM15.6841 9.97654C16.0653 9.97654 16.3101 10.2036 16.3726 10.6035H14.9611C15.0242 10.2302 15.2627 9.97654 15.6842 9.97654M15.696 9.4726C14.8987 9.4726 14.341 10.0238 14.341 10.8299C14.341 11.6518 14.9211 12.1872 15.7356 12.1872C16.1453 12.1872 16.5206 12.0901 16.8508 11.825L16.5609 11.4085C16.3328 11.5817 16.0424 11.6789 15.7694 11.6789C15.3882 11.6789 15.0411 11.5112 14.9558 11.0458H16.9758C16.9816 10.9759 16.9875 10.9054 16.9875 10.8298C16.9816 10.0239 16.4571 9.47244 15.6957 9.47244M22.8378 10.8298C22.8378 10.3754 23.1511 10.0022 23.6631 10.0022C24.1524 10.0022 24.4826 10.3594 24.4826 10.8298C24.4826 11.3002 24.1524 11.6573 23.6631 11.6573C23.1511 11.6573 22.8377 11.2841 22.8377 10.8298M25.0401 10.8298V9.5378H24.4489V9.85276C24.2606 9.62 23.9767 9.47402 23.5897 9.47402C22.8272 9.47402 22.2289 10.0422 22.2289 10.8313C22.2289 11.6205 22.8269 12.1887 23.5897 12.1887C23.9767 12.1887 24.2606 12.0425 24.4489 11.8099V12.1238H25.0403V10.8307L25.0401 10.8298ZM19.4971 10.8298C19.4971 11.6139 20.0716 12.1871 20.9484 12.1871C21.3582 12.1871 21.6312 12.1005 21.9264 11.8789L21.6423 11.4246C21.4202 11.5762 21.187 11.6573 20.9295 11.6573C20.4573 11.6518 20.1101 11.3274 20.1101 10.8298C20.1101 10.3321 20.4573 10.0079 20.9295 10.0022C21.1863 10.0022 21.4195 10.0833 21.6423 10.235L21.9264 9.78063C21.6307 9.55906 21.3577 9.47244 20.9484 9.47244C20.0716 9.47244 19.4971 10.0455 19.4971 10.8298ZM27.1233 9.47244C26.782 9.47244 26.5597 9.6241 26.4061 9.85118V9.5378H25.8198V12.1224H26.4121V10.6735C26.4121 10.2458 26.6055 10.0082 26.9922 10.0082C27.1188 10.0065 27.2445 10.0286 27.3621 10.0732L27.5445 9.54347C27.4135 9.49449 27.2428 9.47291 27.123 9.47291M11.2667 9.74331C10.9821 9.56504 10.5899 9.47291 10.1573 9.47291C9.46812 9.47291 9.0244 9.78677 9.0244 10.3003C9.0244 10.7217 9.35474 10.9817 9.96305 11.0628L10.2425 11.1006C10.5669 11.1439 10.72 11.225 10.72 11.371C10.72 11.5709 10.5045 11.6849 10.1 11.6849C9.69022 11.6849 9.39452 11.5605 9.19513 11.4145L8.91716 11.8528C9.24154 12.0798 9.65127 12.1882 10.095 12.1882C10.8806 12.1882 11.3359 11.8367 11.3359 11.3446C11.3359 10.8902 10.9776 10.6526 10.3855 10.5715L10.1068 10.5331C9.85067 10.5016 9.64547 10.4526 9.64547 10.2794C9.64547 10.0904 9.8389 9.97669 10.1634 9.97669C10.5107 9.97669 10.8468 10.1011 11.0116 10.1983L11.2677 9.74394L11.2667 9.74331ZM18.8996 9.47339C18.5583 9.47339 18.3361 9.62504 18.1831 9.85213V9.5378H17.5968V12.1224H18.1884V10.6735C18.1884 10.2458 18.3818 10.0082 18.7685 10.0082C18.8951 10.0065 19.0209 10.0286 19.1385 10.0732L19.3208 9.54347C19.1898 9.49449 19.0191 9.47291 18.8993 9.47291M13.8515 9.5378H12.8842V8.7537H12.2862V9.5378H11.7344V10.0515H12.2862V11.2306C12.2862 11.8302 12.5312 12.1874 13.231 12.1874C13.4877 12.1874 13.7834 12.1118 13.971 11.9876L13.8002 11.5063C13.6236 11.6035 13.4302 11.6524 13.2764 11.6524C12.9807 11.6524 12.8842 11.4792 12.8842 11.2198V10.052H13.8515V9.5378ZM5.00729 12.123V10.5009C5.00729 9.89008 4.59756 9.47906 3.93705 9.47355C3.5898 9.46803 3.23162 9.57071 2.98084 9.93339C2.79321 9.64677 2.49751 9.47355 2.08181 9.47355C1.79125 9.47355 1.50732 9.55465 1.28505 9.85733V9.5378H0.692993V12.1224H1.28969V10.6893C1.28969 10.2406 1.55158 10.0022 1.95601 10.0022C2.34883 10.0022 2.54757 10.2455 2.54757 10.6836V12.1221H3.14559V10.689C3.14559 10.2403 3.41858 10.0019 3.81124 10.0019C4.21518 10.0019 4.40794 10.2452 4.40794 10.6833V12.1217L5.00729 12.123Z" fill="white"/>
</g>
<defs>
<clipPath id="clip0_2823_1360">
<rect width="34" height="20" fill="white"/>
</clipPath>
</defs>
</svg>
