<svg width="67" height="20" viewBox="0 0 67 20" fill="none" xmlns="http://www.w3.org/2000/svg">
<g clip-path="url(#clip0_2823_1366)">
<path d="M29.0399 20.1106H23.6511L27.0239 0.376953H32.4127L29.0399 20.1106Z" fill="#005CA9"/>
<path d="M19.1147 0.378326L13.9751 13.9475L13.3659 11.0236L11.5493 2.15166C11.5493 2.15166 11.3278 0.373047 8.99059 0.373047H0.505879L0.406189 0.705547C0.406189 0.705547 3.00366 1.22277 6.04421 2.95916L10.7296 20.1014H16.34L24.9188 0.373047H19.1147V0.378326Z" fill="#005CA9"/>
<path d="M61.5156 20.1111H66.4668L62.1525 0.382812H57.816C55.8166 0.382812 55.3293 1.85531 55.3293 1.85531L47.2932 20.1164H52.909L54.0333 17.1873H60.8842L61.5156 20.1111ZM55.584 13.1286L58.4141 5.74504L60.0092 13.1286H55.584Z" fill="#005CA9"/>
<path d="M47.7091 5.12177L48.4789 0.883716C48.4789 0.883716 46.103 0.0234375 43.6329 0.0234375C40.9578 0.0234375 34.6054 1.13705 34.6054 6.55733C34.6054 11.6557 42.06 11.719 42.06 14.3948C42.06 17.0707 35.3752 16.5957 33.1654 14.9068L32.3624 19.3348C32.3624 19.3348 34.7715 20.4484 38.449 20.4484C42.1264 20.4484 47.6758 18.6329 47.6758 13.6929C47.6758 8.56288 40.1548 8.08788 40.1548 5.85538C40.1548 3.62288 45.4051 3.91316 47.7091 5.12177Z" fill="#005CA9"/>
<path d="M13.3715 11.0275L11.5549 2.15556C11.5549 2.15556 11.3334 0.376953 8.99619 0.376953H0.50594L0.40625 0.709454C0.40625 0.709454 4.488 1.51695 8.40913 4.53584C12.1475 7.42806 13.3715 11.0275 13.3715 11.0275Z" fill="#F7A823"/>
</g>
<defs>
<clipPath id="clip0_2823_1366">
<rect width="66.4107" height="20" fill="white" transform="translate(0.303589)"/>
</clipPath>
</defs>
</svg>
