<svg width="40" height="40" viewBox="0 0 40 40" fill="none" xmlns="http://www.w3.org/2000/svg">
<path d="M20 1C9.55 1 1 9.55 1 20C1 30.45 9.55 39 20 39C30.45 39 39 30.45 39 20C39 9.55 30.45 1 20 1Z" fill="#1976D2"/>
<path d="M20.9676 27.0373C13.051 27.0373 8.56484 21.6715 8.38892 12.6113H12.3472C12.4352 19.2086 15.426 22.0234 17.713 22.5511V12.6113H21.4074V18.3289C23.6945 18.065 26.0695 15.5141 26.8611 12.6113H30.5556C29.9398 16.1298 27.301 18.7687 25.4537 19.8243C27.301 20.7039 30.2917 22.991 31.3472 27.0373H27.213C26.3334 24.3104 24.1343 22.1993 21.2315 21.8474V27.0373H20.9676Z" fill="white"/>
</svg>
